<svg xmlns="http://www.w3.org/2000/svg" width="23.868" height="23.694"><path fill-rule="evenodd" d="M11.934 0C8.692 0 8.293.012 7.008.075a8.508 8.508 0 0 0-2.893.549 5.871 5.871 0 0 0-2.107 1.359A5.78 5.78 0 0 0 .624 4.091a8.587 8.587 0 0 0-.549 2.868C.013 8.231 0 8.63 0 11.847s.012 3.616.075 4.888a8.587 8.587 0 0 0 .549 2.868 5.78 5.78 0 0 0 1.384 2.108 5.87 5.87 0 0 0 2.107 1.359 8.509 8.509 0 0 0 2.893.549c1.284.062 1.683.075 4.926.075s3.654-.012 4.926-.075a8.447 8.447 0 0 0 2.893-.549 5.872 5.872 0 0 0 2.107-1.359 5.78 5.78 0 0 0 1.384-2.108 8.286 8.286 0 0 0 .549-2.868c.062-1.272.075-1.671.075-4.888s-.013-3.616-.075-4.888a8.286 8.286 0 0 0-.549-2.868 5.78 5.78 0 0 0-1.384-2.108A5.873 5.873 0 0 0 19.753.624 8.446 8.446 0 0 0 16.86.075C15.588.012 15.177 0 11.934 0Zm0 2.132c3.192 0 3.567.012 4.826.075a6.7 6.7 0 0 1 2.22.4 4 4 0 0 1 1.372.885 3.718 3.718 0 0 1 .885 1.372 6.365 6.365 0 0 1 .412 2.195c.062 1.247.075 1.621.075 4.789s-.013 3.542-.075 4.789a6.365 6.365 0 0 1-.412 2.195 3.718 3.718 0 0 1-.885 1.372 3.994 3.994 0 0 1-1.372.885 6.7 6.7 0 0 1-2.22.4c-1.259.062-1.634.075-4.826.075s-3.567-.012-4.826-.075a6.538 6.538 0 0 1-2.207-.4 3.771 3.771 0 0 1-1.372-.885 3.6 3.6 0 0 1-.9-1.372 6.363 6.363 0 0 1-.411-2.195c-.062-1.247-.075-1.621-.075-4.789s.012-3.542.075-4.789a6.363 6.363 0 0 1 .411-2.195 3.6 3.6 0 0 1 .9-1.372 3.772 3.772 0 0 1 1.372-.885 6.538 6.538 0 0 1 2.207-.4c1.26-.062 1.646-.075 4.826-.075Z" data-name="パス 16"/><path fill-rule="evenodd" d="M11.934 15.8a3.953 3.953 0 1 1 3.978-3.953 3.968 3.968 0 0 1-3.978 3.953Zm0-10.039a6.086 6.086 0 1 0 6.135 6.086 6.11 6.11 0 0 0-6.135-6.086Z" data-name="パス 17"/><ellipse cx="1.434" cy="1.422" data-name="楕円形 3" rx="1.434" ry="1.422" transform="translate(16.873 4.103)"/></svg>